<svg width="52" height="52" viewBox="0 0 52 52" fill="none" xmlns="http://www.w3.org/2000/svg">
<g clip-path="url(#clip0_14_70)">
<path d="M41.1665 18.252V15.1667C41.1665 11.1442 39.5685 7.28652 36.7242 4.44221C33.8799 1.59791 30.0222 0 25.9998 0C21.9773 0 18.1196 1.59791 15.2753 4.44221C12.431 7.28652 10.8331 11.1442 10.8331 15.1667V18.252C8.90341 19.0942 7.26093 20.4805 6.10654 22.2413C4.95216 24.0021 4.3359 26.0612 4.33313 28.1667V41.1667C4.33657 44.0388 5.47904 46.7923 7.50994 48.8232C9.54084 50.8541 12.2943 51.9966 15.1665 52H36.8331C39.7052 51.9966 42.4588 50.8541 44.4897 48.8232C46.5205 46.7923 47.663 44.0388 47.6665 41.1667V28.1667C47.6637 26.0612 47.0474 24.0021 45.893 22.2413C44.7387 20.4805 43.0962 19.0942 41.1665 18.252ZM15.1665 15.1667C15.1665 12.2935 16.3078 9.53799 18.3395 7.50634C20.3711 5.4747 23.1266 4.33333 25.9998 4.33333C28.873 4.33333 31.6285 5.4747 33.6601 7.50634C35.6918 9.53799 36.8331 12.2935 36.8331 15.1667V17.3333H15.1665V15.1667ZM43.3331 41.1667C43.3331 42.8906 42.6483 44.5439 41.4293 45.7629C40.2103 46.9818 38.557 47.6667 36.8331 47.6667H15.1665C13.4426 47.6667 11.7893 46.9818 10.5703 45.7629C9.35128 44.5439 8.66646 42.8906 8.66646 41.1667V28.1667C8.66646 26.4428 9.35128 24.7895 10.5703 23.5705C11.7893 22.3515 13.4426 21.6667 15.1665 21.6667H36.8331C38.557 21.6667 40.2103 22.3515 41.4293 23.5705C42.6483 24.7895 43.3331 26.4428 43.3331 28.1667V41.1667Z" fill="#9A9FB1"/>
<path d="M25.9999 30.3325C25.4252 30.3325 24.8741 30.5608 24.4678 30.9671C24.0615 31.3734 23.8332 31.9245 23.8332 32.4992V36.8325C23.8332 37.4071 24.0615 37.9582 24.4678 38.3646C24.8741 38.7709 25.4252 38.9992 25.9999 38.9992C26.5745 38.9992 27.1256 38.7709 27.5319 38.3646C27.9383 37.9582 28.1665 37.4071 28.1665 36.8325V32.4992C28.1665 31.9245 27.9383 31.3734 27.5319 30.9671C27.1256 30.5608 26.5745 30.3325 25.9999 30.3325Z" fill="#A6A6A6"/>
</g>
<defs>
<clipPath id="clip0_14_70">
<rect width="52" height="52" fill="white"/>
</clipPath>
</defs>
</svg>
