<svg width="55" height="36" viewBox="0 0 55 36" fill="none" xmlns="http://www.w3.org/2000/svg">
<g clip-path="url(#clip0_184_454)">
<path d="M39 20C40.5823 20 42.129 19.5308 43.4446 18.6518C44.7602 17.7727 45.7855 16.5233 46.391 15.0615C46.9965 13.5997 47.155 11.9911 46.8463 10.4393C46.5376 8.88743 45.7757 7.46197 44.6569 6.34315C43.538 5.22433 42.1126 4.4624 40.5607 4.15372C39.0089 3.84504 37.4003 4.00347 35.9385 4.60897C34.4767 5.21447 33.2273 6.23985 32.3482 7.55544C31.4692 8.87103 31 10.4178 31 12C31.0021 14.1211 31.8457 16.1547 33.3455 17.6545C34.8453 19.1544 36.8789 19.9979 39 20ZM39 6.66667C40.0548 6.66667 41.086 6.97946 41.963 7.5655C42.8401 8.15153 43.5237 8.98449 43.9274 9.95903C44.331 10.9336 44.4366 12.0059 44.2309 13.0405C44.0251 14.0751 43.5171 15.0254 42.7712 15.7712C42.0254 16.5171 41.075 17.0251 40.0405 17.2309C39.0059 17.4366 37.9336 17.331 36.959 16.9274C35.9845 16.5237 35.1515 15.8401 34.5655 14.963C33.9795 14.086 33.6667 13.0548 33.6667 12C33.6667 10.5855 34.2286 9.22896 35.2288 8.22877C36.229 7.22857 37.5855 6.66667 39 6.66667V6.66667Z" fill="#5C6178"/>
<path d="M39 22.6675C35.8185 22.671 32.7683 23.9364 30.5186 26.1861C28.2689 28.4358 27.0035 31.486 27 34.6675C27 35.0211 27.1405 35.3602 27.3905 35.6103C27.6406 35.8603 27.9797 36.0008 28.3333 36.0008C28.687 36.0008 29.0261 35.8603 29.2761 35.6103C29.5262 35.3602 29.6667 35.0211 29.6667 34.6675C29.6667 32.1921 30.65 29.8182 32.4003 28.0678C34.1507 26.3175 36.5246 25.3341 39 25.3341C41.4754 25.3341 43.8493 26.3175 45.5997 28.0678C47.35 29.8182 48.3333 32.1921 48.3333 34.6675C48.3333 35.0211 48.4738 35.3602 48.7239 35.6103C48.9739 35.8603 49.313 36.0008 49.6667 36.0008C50.0203 36.0008 50.3594 35.8603 50.6095 35.6103C50.8595 35.3602 51 35.0211 51 34.6675C50.9965 31.486 49.7311 28.4358 47.4814 26.1861C45.2317 23.9364 42.1815 22.671 39 22.6675V22.6675Z" fill="#5C6178"/>
</g>
<g clip-path="url(#clip1_184_454)">
<path d="M16 20C17.5823 20 19.129 19.5308 20.4446 18.6518C21.7602 17.7727 22.7855 16.5233 23.391 15.0615C23.9965 13.5997 24.155 11.9911 23.8463 10.4393C23.5376 8.88743 22.7757 7.46197 21.6569 6.34315C20.538 5.22433 19.1126 4.4624 17.5607 4.15372C16.0089 3.84504 14.4003 4.00347 12.9385 4.60897C11.4767 5.21447 10.2273 6.23985 9.34824 7.55544C8.46919 8.87103 8 10.4178 8 12C8.00212 14.1211 8.84565 16.1547 10.3455 17.6545C11.8453 19.1544 13.8789 19.9979 16 20ZM16 6.66667C17.0548 6.66667 18.086 6.97946 18.963 7.5655C19.8401 8.15153 20.5237 8.98449 20.9274 9.95903C21.331 10.9336 21.4366 12.0059 21.2309 13.0405C21.0251 14.0751 20.5171 15.0254 19.7712 15.7712C19.0254 16.5171 18.075 17.0251 17.0405 17.2309C16.0059 17.4366 14.9336 17.331 13.959 16.9274C12.9845 16.5237 12.1515 15.8401 11.5655 14.963C10.9795 14.086 10.6667 13.0548 10.6667 12C10.6667 10.5855 11.2286 9.22896 12.2288 8.22877C13.229 7.22857 14.5855 6.66667 16 6.66667V6.66667Z" fill="#5C6178"/>
<path d="M16 22.6675C12.8185 22.671 9.76829 23.9364 7.51862 26.1861C5.26894 28.4358 4.00353 31.486 4 34.6675C4 35.0211 4.14048 35.3602 4.39052 35.6103C4.64057 35.8603 4.97971 36.0008 5.33333 36.0008C5.68696 36.0008 6.02609 35.8603 6.27614 35.6103C6.52619 35.3602 6.66667 35.0211 6.66667 34.6675C6.66667 32.1921 7.65 29.8182 9.40034 28.0678C11.1507 26.3175 13.5246 25.3341 16 25.3341C18.4754 25.3341 20.8493 26.3175 22.5997 28.0678C24.35 29.8182 25.3333 32.1921 25.3333 34.6675C25.3333 35.0211 25.4738 35.3602 25.7239 35.6103C25.9739 35.8603 26.313 36.0008 26.6667 36.0008C27.0203 36.0008 27.3594 35.8603 27.6095 35.6103C27.8595 35.3602 28 35.0211 28 34.6675C27.9965 31.486 26.7311 28.4358 24.4814 26.1861C22.2317 23.9364 19.1815 22.671 16 22.6675V22.6675Z" fill="#5C6178"/>
</g>
<g clip-path="url(#clip2_184_454)">
<path d="M28 18C29.78 18 31.5201 17.4722 33.0001 16.4832C34.4802 15.4943 35.6337 14.0887 36.3149 12.4442C36.9961 10.7996 37.1743 8.99002 36.8271 7.24419C36.4798 5.49836 35.6226 3.89472 34.364 2.63604C33.1053 1.37737 31.5016 0.520204 29.7558 0.172937C28.01 -0.17433 26.2004 0.00389957 24.5558 0.685088C22.9113 1.36628 21.5057 2.51983 20.5168 3.99987C19.5278 5.47991 19 7.21997 19 9C19.0024 11.3862 19.9514 13.674 21.6387 15.3613C23.326 17.0486 25.6138 17.9976 28 18ZM28 3C29.1867 3 30.3467 3.3519 31.3334 4.01119C32.3201 4.67047 33.0892 5.60755 33.5433 6.7039C33.9974 7.80026 34.1162 9.00666 33.8847 10.1705C33.6532 11.3344 33.0818 12.4035 32.2426 13.2426C31.4035 14.0818 30.3344 14.6532 29.1705 14.8847C28.0067 15.1162 26.8003 14.9974 25.7039 14.5433C24.6075 14.0892 23.6705 13.3201 23.0112 12.3334C22.3519 11.3467 22 10.1867 22 9C22 7.40871 22.6321 5.88258 23.7574 4.75736C24.8826 3.63215 26.4087 3 28 3V3Z" fill="#A7A7D7"/>
<path d="M28 21.001C24.4208 21.0049 20.9893 22.4285 18.4584 24.9594C15.9276 27.4903 14.504 30.9218 14.5 34.501C14.5 34.8988 14.658 35.2803 14.9393 35.5616C15.2206 35.8429 15.6022 36.001 16 36.001C16.3978 36.001 16.7794 35.8429 17.0607 35.5616C17.342 35.2803 17.5 34.8988 17.5 34.501C17.5 31.7162 18.6062 29.0455 20.5754 27.0764C22.5445 25.1072 25.2152 24.001 28 24.001C30.7848 24.001 33.4555 25.1072 35.4246 27.0764C37.3938 29.0455 38.5 31.7162 38.5 34.501C38.5 34.8988 38.658 35.2803 38.9393 35.5616C39.2206 35.8429 39.6022 36.001 40 36.001C40.3978 36.001 40.7794 35.8429 41.0607 35.5616C41.342 35.2803 41.5 34.8988 41.5 34.501C41.496 30.9218 40.0724 27.4903 37.5416 24.9594C35.0107 22.4285 31.5792 21.0049 28 21.001V21.001Z" fill="#A7A7D7"/>
</g>
<defs>
<clipPath id="clip0_184_454">
<rect width="32" height="32" fill="white" transform="translate(23 4)"/>
</clipPath>
<clipPath id="clip1_184_454">
<rect width="32" height="32" fill="white" transform="translate(0 4)"/>
</clipPath>
<clipPath id="clip2_184_454">
<rect width="36" height="36" fill="white" transform="translate(10)"/>
</clipPath>
</defs>
</svg>
