<svg width="30" height="36" viewBox="0 0 30 36" fill="none" xmlns="http://www.w3.org/2000/svg">
<path d="M22.5002 21C22.5002 21.3979 22.3422 21.7794 22.0609 22.0607C21.7796 22.342 21.3981 22.5 21.0002 22.5H9.00024C8.60242 22.5 8.22089 22.342 7.93958 22.0607C7.65828 21.7794 7.50024 21.3979 7.50024 21C7.50024 20.6022 7.65828 20.2207 7.93958 19.9394C8.22089 19.6581 8.60242 19.5 9.00024 19.5H21.0002C21.3981 19.5 21.7796 19.6581 22.0609 19.9394C22.3422 20.2207 22.5002 20.6022 22.5002 21ZM16.5002 25.5H9.00024C8.60242 25.5 8.22089 25.6581 7.93958 25.9394C7.65828 26.2207 7.50024 26.6022 7.50024 27C7.50024 27.3979 7.65828 27.7794 7.93958 28.0607C8.22089 28.342 8.60242 28.5 9.00024 28.5H16.5002C16.8981 28.5 17.2796 28.342 17.5609 28.0607C17.8422 27.7794 18.0002 27.3979 18.0002 27C18.0002 26.6022 17.8422 26.2207 17.5609 25.9394C17.2796 25.6581 16.8981 25.5 16.5002 25.5ZM30.0002 15.7275V28.5C29.9979 30.4884 29.2069 32.3947 27.8009 33.8007C26.3949 35.2067 24.4886 35.9977 22.5002 36H7.50024C5.51185 35.9977 3.60558 35.2067 2.19957 33.8007C0.793567 32.3947 0.00262593 30.4884 0.000244141 28.5V7.50003C0.00262593 5.51164 0.793567 3.60537 2.19957 2.19936C3.60558 0.793357 5.51185 0.00241636 7.50024 3.4573e-05H14.2727C15.6522 -0.00351582 17.0186 0.266416 18.2931 0.794223C19.5675 1.32203 20.7247 2.09724 21.6977 3.07503L26.9237 8.30403C27.9021 9.27639 28.6778 10.4332 29.2059 11.7075C29.734 12.9818 30.004 14.3482 30.0002 15.7275V15.7275ZM19.5767 5.19603C19.1047 4.73878 18.5746 4.34542 18.0002 4.02603V10.5C18.0002 10.8979 18.1583 11.2794 18.4396 11.5607C18.7209 11.842 19.1024 12 19.5002 12H25.9742C25.6547 11.4258 25.2608 10.8963 24.8027 10.425L19.5767 5.19603ZM27.0002 15.7275C27.0002 15.48 26.9522 15.243 26.9297 15H19.5002C18.3068 15 17.1622 14.5259 16.3183 13.682C15.4743 12.8381 15.0002 11.6935 15.0002 10.5V3.07053C14.7572 3.04803 14.5187 3.00003 14.2727 3.00003H7.50024C6.30677 3.00003 5.16218 3.47414 4.31826 4.31805C3.47435 5.16197 3.00024 6.30656 3.00024 7.50003V28.5C3.00024 29.6935 3.47435 30.8381 4.31826 31.682C5.16218 32.5259 6.30677 33 7.50024 33H22.5002C23.6937 33 24.8383 32.5259 25.6822 31.682C26.5261 30.8381 27.0002 29.6935 27.0002 28.5V15.7275Z" fill="#5C6178"/>
</svg>
