<svg width="36" height="36" viewBox="0 0 36 36" fill="none" xmlns="http://www.w3.org/2000/svg">
<g clip-path="url(#clip0_184_458)">
<path d="M34.5 33H4.5C4.10218 33 3.72064 32.842 3.43934 32.5607C3.15804 32.2794 3 31.8978 3 31.5V1.5C3 1.10218 2.84196 0.720644 2.56066 0.43934C2.27936 0.158035 1.89782 0 1.5 0C1.10218 0 0.720644 0.158035 0.43934 0.43934C0.158035 0.720644 0 1.10218 0 1.5L0 31.5C0 32.6935 0.474106 33.8381 1.31802 34.682C2.16193 35.5259 3.30653 36 4.5 36H34.5C34.8978 36 35.2794 35.842 35.5607 35.5607C35.842 35.2794 36 34.8978 36 34.5C36 34.1022 35.842 33.7206 35.5607 33.4393C35.2794 33.158 34.8978 33 34.5 33Z" fill="#A7A7D7"/>
<path d="M22.5003 30.001C22.8981 30.001 23.2796 29.8429 23.5609 29.5616C23.8422 29.2803 24.0003 28.8988 24.0003 28.501V18.001C24.0003 17.6032 23.8422 17.2216 23.5609 16.9403C23.2796 16.659 22.8981 16.501 22.5003 16.501C22.1024 16.501 21.7209 16.659 21.4396 16.9403C21.1583 17.2216 21.0002 17.6032 21.0002 18.001V28.501C21.0002 28.8988 21.1583 29.2803 21.4396 29.5616C21.7209 29.8429 22.1024 30.001 22.5003 30.001Z" fill="#A7A7D7"/>
<path d="M10.5 30.001C10.8978 30.001 11.2794 29.8429 11.5607 29.5616C11.842 29.2803 12 28.8988 12 28.501V18.001C12 17.6032 11.842 17.2216 11.5607 16.9403C11.2794 16.659 10.8978 16.501 10.5 16.501C10.1022 16.501 9.72064 16.659 9.43934 16.9403C9.15804 17.2216 9 17.6032 9 18.001V28.501C9 28.8988 9.15804 29.2803 9.43934 29.5616C9.72064 29.8429 10.1022 30.001 10.5 30.001Z" fill="#A7A7D7"/>
<path d="M28.5 30C28.8978 30 29.2794 29.842 29.5607 29.5607C29.842 29.2794 30 28.8978 30 28.5V10.5C30 10.1022 29.842 9.72064 29.5607 9.43934C29.2794 9.15804 28.8978 9 28.5 9C28.1022 9 27.7206 9.15804 27.4393 9.43934C27.158 9.72064 27 10.1022 27 10.5V28.5C27 28.8978 27.158 29.2794 27.4393 29.5607C27.7206 29.842 28.1022 30 28.5 30Z" fill="#A7A7D7"/>
<path d="M16.4998 30C16.8976 30 17.2791 29.842 17.5604 29.5607C17.8417 29.2794 17.9998 28.8978 17.9998 28.5V10.5C17.9998 10.1022 17.8417 9.72064 17.5604 9.43934C17.2791 9.15804 16.8976 9 16.4998 9C16.1019 9 15.7204 9.15804 15.4391 9.43934C15.1578 9.72064 14.9998 10.1022 14.9998 10.5V28.5C14.9998 28.8978 15.1578 29.2794 15.4391 29.5607C15.7204 29.842 16.1019 30 16.4998 30Z" fill="#A7A7D7"/>
</g>
<defs>
<clipPath id="clip0_184_458">
<rect width="36" height="36" fill="white"/>
</clipPath>
</defs>
</svg>
