<svg width="47" height="47" viewBox="0 0 47 47" fill="none" xmlns="http://www.w3.org/2000/svg">
<path fill-rule="evenodd" clip-rule="evenodd" d="M35.3539 43.7957C31.874 45.8325 27.8233 47 23.5 47C19.1767 47 15.126 45.8325 11.6461 43.7956C11.9905 41.2694 13.1766 38.9068 15.0442 37.0848C17.2868 34.8968 20.3284 33.6677 23.5 33.6677C26.6715 33.6677 29.7132 34.8968 31.9558 37.0848C33.8234 38.9068 35.0094 41.2694 35.3539 43.7957ZM38.4052 41.6691C37.7303 39.0657 36.3457 36.6633 34.3668 34.7326C31.4844 31.9205 27.5763 30.3388 23.5 30.3344C19.4237 30.3388 15.5156 31.9205 12.6332 34.7326C10.6542 36.6633 9.26971 39.0657 8.59477 41.6691C3.34726 37.3592 0 30.8205 0 23.5C0 10.5213 10.5213 0 23.5 0C36.4787 0 47 10.5213 47 23.5C47 30.8205 43.6527 37.3592 38.4052 41.6691ZM23.5 26.9999C25.5273 26.9999 27.509 26.4134 29.1946 25.3146C30.8802 24.2158 32.194 22.654 32.9698 20.8267C33.7456 18.9995 33.9485 16.9888 33.5531 15.049C33.1576 13.1092 32.1813 11.3274 30.7478 9.92883C29.3144 8.5303 27.488 7.5779 25.4997 7.19204C23.5114 6.80619 21.4504 7.00422 19.5775 7.7611C17.7046 8.51798 16.1037 9.7997 14.9774 11.4442C13.8512 13.0887 13.25 15.0221 13.25 16.9999C13.2527 19.6512 14.3335 22.1933 16.2552 24.068C18.1768 25.9428 20.7824 26.9972 23.5 26.9999ZM23.5 10.3332C24.8515 10.3332 26.1727 10.7242 27.2964 11.4568C28.4201 12.1893 29.296 13.2305 29.8132 14.4487C30.3304 15.6668 30.4657 17.0073 30.202 18.3005C29.9384 19.5937 29.2876 20.7816 28.3319 21.7139C27.3762 22.6463 26.1587 23.2812 24.8331 23.5385C23.5076 23.7957 22.1336 23.6637 20.885 23.1591C19.6364 22.6545 18.5691 21.8 17.8183 20.7037C17.0674 19.6074 16.6667 18.3184 16.6667 16.9999C16.6667 15.2318 17.3866 13.5361 18.6681 12.2859C19.9496 11.0356 21.6877 10.3332 23.5 10.3332Z" fill="#A7A7D7"/>
</svg>
