<svg width="30" height="30" viewBox="0 0 30 30" fill="none" xmlns="http://www.w3.org/2000/svg">
<g clip-path="url(#clip0_91_303)">
<path d="M27.8988 5.53876L10.625 22.8113C10.5089 22.9279 10.3709 23.0204 10.2189 23.0835C10.0669 23.1466 9.90397 23.1791 9.7394 23.1791C9.57484 23.1791 9.41189 23.1466 9.25991 23.0835C9.10793 23.0204 8.96992 22.9279 8.85378 22.8113L2.17378 16.125C2.05764 16.0084 1.91963 15.9159 1.76765 15.8528C1.61567 15.7896 1.45272 15.7571 1.28815 15.7571C1.12359 15.7571 0.96064 15.7896 0.808662 15.8528C0.656684 15.9159 0.518666 16.0084 0.402529 16.125C0.285934 16.2411 0.193418 16.3792 0.130291 16.5311C0.0671638 16.6831 0.034668 16.8461 0.034668 17.0106C0.034668 17.1752 0.0671638 17.3381 0.130291 17.4901C0.193418 17.6421 0.285934 17.7801 0.402529 17.8963L7.08503 24.5775C7.78996 25.2811 8.74528 25.6763 9.74128 25.6763C10.7373 25.6763 11.6926 25.2811 12.3975 24.5775L29.67 7.30876C29.7864 7.19265 29.8788 7.05471 29.9418 6.90284C30.0048 6.75098 30.0373 6.58818 30.0373 6.42376C30.0373 6.25934 30.0048 6.09654 29.9418 5.94468C29.8788 5.79281 29.7864 5.65487 29.67 5.53876C29.5539 5.42216 29.4159 5.32965 29.2639 5.26652C29.1119 5.20339 28.949 5.1709 28.7844 5.1709C28.6198 5.1709 28.4569 5.20339 28.3049 5.26652C28.1529 5.32965 28.0149 5.42216 27.8988 5.53876Z" fill="#80FC94"/>
</g>
<defs>
<clipPath id="clip0_91_303">
<rect width="30" height="30" fill="white"/>
</clipPath>
</defs>
</svg>
