<svg width="36" height="34" viewBox="0 0 36 34" fill="none" xmlns="http://www.w3.org/2000/svg">
<path d="M33.0852 6.84497L22.0242 1.57547C19.5894 0.121122 16.559 0.0953168 14.0997 1.50797L2.91426 6.84497C2.87228 6.86599 2.82876 6.88849 2.78826 6.91247C0.13382 8.43023 -0.787696 11.8125 0.73007 14.4669C1.24455 15.3668 2.00132 16.1041 2.91426 16.595L5.99978 18.065V25.415C6.00161 28.7016 8.14016 31.6052 11.2783 32.582C13.4621 33.2138 15.7265 33.5231 17.9998 33.5C20.2727 33.5255 22.5371 33.2188 24.7213 32.5895C27.8594 31.6128 29.998 28.7091 29.9998 25.4225V18.062L32.9998 16.628V28.9999C32.9998 29.8284 33.6714 30.4999 34.4998 30.4999C35.3282 30.4999 35.9998 29.8284 35.9998 28.9999V10.9999C36.0098 9.23854 34.619 7.61137 33.0852 6.84497ZM26.9997 25.4225C27.0005 27.3884 25.725 29.1273 23.8497 29.717C21.9481 30.2604 19.9774 30.5241 17.9997 30.5C16.0221 30.5241 14.0514 30.2604 12.1497 29.717C10.2744 29.1272 8.99896 27.3884 8.99973 25.4225V19.4945L13.9753 21.8646C15.2029 22.5936 16.605 22.9766 18.0328 22.973C19.3918 22.9827 20.7279 22.6229 21.8983 21.9321L26.9997 19.4945V25.4225ZM31.7998 13.8875L20.4868 19.2875C18.9094 20.206 16.9542 20.1799 15.4018 19.22L4.33323 13.955C3.09946 13.2897 2.63863 11.7502 3.30393 10.5165C3.52893 10.0992 3.86629 9.75337 4.27776 9.51797L15.5202 4.14799C17.0981 3.23154 19.0522 3.25748 20.6052 4.21549L31.6662 9.48499C32.4797 9.93668 32.9886 10.7896 32.9997 11.72C33.0012 12.6013 32.5474 13.4209 31.7998 13.8875Z" fill="#A7A7D7"/>
</svg>
