<svg width="36" height="36" viewBox="0 0 36 36" fill="none" xmlns="http://www.w3.org/2000/svg">
<g clip-path="url(#clip0_184_460)">
<path d="M28.5 4.50049H18.708C18.476 4.50202 18.2467 4.45072 18.0375 4.35049L13.3035 1.97449C12.6786 1.66331 11.9901 1.50107 11.292 1.50049H7.5C5.51161 1.50287 3.60534 2.29381 2.19933 3.69982C0.793323 5.10582 0.00238179 7.0121 0 9.00049L0 27.0005C0.00238179 28.9889 0.793323 30.8952 2.19933 32.3012C3.60534 33.7072 5.51161 34.4981 7.5 34.5005H28.5C30.4884 34.4981 32.3947 33.7072 33.8007 32.3012C35.2067 30.8952 35.9976 28.9889 36 27.0005V12.0005C35.9976 10.0121 35.2067 8.10582 33.8007 6.69982C32.3947 5.29381 30.4884 4.50287 28.5 4.50049ZM7.5 4.50049H11.292C11.524 4.49896 11.7533 4.55025 11.9625 4.65049L16.6965 7.01899C17.3208 7.33277 18.0093 7.49758 18.708 7.50049H28.5C29.3971 7.50195 30.2732 7.77149 31.016 8.27451C31.7587 8.77752 32.3342 9.49105 32.6685 10.3235L3 10.4915V9.00049C3 7.80701 3.47411 6.66242 4.31802 5.81851C5.16193 4.97459 6.30653 4.50049 7.5 4.50049ZM28.5 31.5005H7.5C6.30653 31.5005 5.16193 31.0264 4.31802 30.1825C3.47411 29.3386 3 28.194 3 27.0005V13.4915L33 13.322V27.0005C33 28.194 32.5259 29.3386 31.682 30.1825C30.8381 31.0264 29.6935 31.5005 28.5 31.5005Z" fill="#5C6178"/>
</g>
<defs>
<clipPath id="clip0_184_460">
<rect width="36" height="36" fill="white"/>
</clipPath>
</defs>
</svg>
