<svg width="162" height="162" viewBox="0 0 162 162" fill="none" xmlns="http://www.w3.org/2000/svg">
<g clip-path="url(#clip0_91_543)">
<path d="M74.296 17.4025L74.2487 121.609C74.2487 123.399 74.9599 125.116 76.2257 126.382C77.4916 127.648 79.2085 128.359 80.9987 128.359C82.7889 128.359 84.5058 127.648 85.7717 126.382C87.0376 125.116 87.7487 123.399 87.7487 121.609L87.796 17.5172L107.452 37.18C108.718 38.4454 110.434 39.1563 112.224 39.1563C114.014 39.1563 115.731 38.4454 116.996 37.18C118.262 35.9142 118.973 34.1976 118.973 32.4077C118.973 30.6179 118.262 28.9013 116.996 27.6355L95.3222 5.93421C93.4417 4.05245 91.2087 2.55969 88.7511 1.54122C86.2934 0.522747 83.6591 -0.00146484 80.9987 -0.00146484C78.3384 -0.00146484 75.7041 0.522747 73.2464 1.54122C70.7887 2.55969 68.5558 4.05245 66.6752 5.93421L45.001 27.6152C43.7355 28.881 43.0247 30.5976 43.0247 32.3875C43.0247 34.1773 43.7355 35.8939 45.001 37.1597C46.2668 38.4251 47.9834 39.136 49.7732 39.136C51.5631 39.136 53.2797 38.4251 54.5455 37.1597L74.296 17.4025Z" fill="#9FA4FF"/>
<path d="M148.5 114.746V141.746C148.5 143.536 147.789 145.253 146.523 146.519C145.257 147.785 143.54 148.496 141.75 148.496H20.25C18.4598 148.496 16.7429 147.785 15.477 146.519C14.2112 145.253 13.5 143.536 13.5 141.746V114.746C13.5 112.956 12.7888 111.239 11.523 109.973C10.2571 108.707 8.54021 107.996 6.75 107.996C4.95979 107.996 3.2429 108.707 1.97703 109.973C0.711159 111.239 0 112.956 0 114.746L0 141.746C0 147.117 2.13348 152.267 5.93109 156.065C9.7287 159.863 14.8794 161.996 20.25 161.996H141.75C147.121 161.996 152.271 159.863 156.069 156.065C159.867 152.267 162 147.117 162 141.746V114.746C162 112.956 161.289 111.239 160.023 109.973C158.757 108.707 157.04 107.996 155.25 107.996C153.46 107.996 151.743 108.707 150.477 109.973C149.211 111.239 148.5 112.956 148.5 114.746Z" fill="#9FA4FF"/>
</g>
<defs>
<clipPath id="clip0_91_543">
<rect width="162" height="162" fill="white"/>
</clipPath>
</defs>
</svg>
