<svg width="36" height="36" viewBox="0 0 36 36" fill="none" xmlns="http://www.w3.org/2000/svg">
<g clip-path="url(#clip0_184_453)">
<path d="M18 18C19.78 18 21.5201 17.4722 23.0001 16.4832C24.4802 15.4943 25.6337 14.0887 26.3149 12.4442C26.9961 10.7996 27.1743 8.99002 26.8271 7.24419C26.4798 5.49836 25.6226 3.89472 24.364 2.63604C23.1053 1.37737 21.5016 0.520204 19.7558 0.172937C18.01 -0.17433 16.2004 0.00389957 14.5558 0.685088C12.9113 1.36628 11.5057 2.51983 10.5168 3.99987C9.52784 5.47991 9 7.21997 9 9C9.00238 11.3862 9.95136 13.674 11.6387 15.3613C13.326 17.0486 15.6138 17.9976 18 18ZM18 3C19.1867 3 20.3467 3.3519 21.3334 4.01119C22.3201 4.67047 23.0892 5.60755 23.5433 6.7039C23.9974 7.80026 24.1162 9.00666 23.8847 10.1705C23.6532 11.3344 23.0818 12.4035 22.2426 13.2426C21.4035 14.0818 20.3344 14.6532 19.1705 14.8847C18.0067 15.1162 16.8003 14.9974 15.7039 14.5433C14.6075 14.0892 13.6705 13.3201 13.0112 12.3334C12.3519 11.3467 12 10.1867 12 9C12 7.40871 12.6321 5.88258 13.7574 4.75736C14.8826 3.63215 16.4087 3 18 3V3Z" fill="#5C6178"/>
<path d="M18 21.001C14.4208 21.0049 10.9893 22.4285 8.45844 24.9594C5.92756 27.4903 4.50397 30.9218 4.5 34.501C4.5 34.8988 4.65804 35.2803 4.93934 35.5616C5.22064 35.8429 5.60218 36.001 6 36.001C6.39782 36.001 6.77936 35.8429 7.06066 35.5616C7.34196 35.2803 7.5 34.8988 7.5 34.501C7.5 31.7162 8.60625 29.0455 10.5754 27.0764C12.5445 25.1072 15.2152 24.001 18 24.001C20.7848 24.001 23.4555 25.1072 25.4246 27.0764C27.3938 29.0455 28.5 31.7162 28.5 34.501C28.5 34.8988 28.658 35.2803 28.9393 35.5616C29.2206 35.8429 29.6022 36.001 30 36.001C30.3978 36.001 30.7794 35.8429 31.0607 35.5616C31.342 35.2803 31.5 34.8988 31.5 34.501C31.496 30.9218 30.0724 27.4903 27.5416 24.9594C25.0107 22.4285 21.5792 21.0049 18 21.001V21.001Z" fill="#5C6178"/>
</g>
<defs>
<clipPath id="clip0_184_453">
<rect width="36" height="36" fill="white"/>
</clipPath>
</defs>
</svg>
